{
	"asset":{
		"generator":"Khronos glTF Blender I/O v4.0.44",
		"version":"2.0"
	},
	"scene":0,
	"scenes":[
		{
			"name":"Scene",
			"nodes":[
				0,
				1
			]
		}
	],
	"nodes":[
		{
			"mesh":0,
			"name":"Circle.001",
			"scale":[
				0.1882612109184265,
				0.1882612109184265,
				0.1882612109184265
			],
			"translation":[
				0,
				3.204782247543335,
				0
			]
		},
		{
			"mesh":1,
			"name":"Circle"
		}
	],
	"materials":[
		{
			"doubleSided":true,
			"name":"Material.001",
			"pbrMetallicRoughness":{
				"baseColorFactor":[
					0.5678634643554688,
					0.5678634643554688,
					0.5678634643554688,
					1
				],
				"roughnessFactor":0.13768115639686584
			}
		},
		{
			"doubleSided":true,
			"name":"Material.002",
			"pbrMetallicRoughness":{
				"baseColorFactor":[
					0.8001017570495605,
					0.013568754307925701,
					0,
					1
				],
				"metallicFactor":0,
				"roughnessFactor":0.0942029058933258
			}
		}
	],
	"meshes":[
		{
			"name":"Circle.001",
			"primitives":[
				{
					"attributes":{
						"POSITION":0,
						"NORMAL":1,
						"TEXCOORD_0":2
					},
					"indices":3,
					"material":0
				}
			]
		},
		{
			"name":"Circle",
			"primitives":[
				{
					"attributes":{
						"POSITION":4,
						"NORMAL":5,
						"TEXCOORD_0":6
					},
					"indices":7,
					"material":1
				}
			]
		}
	],
	"accessors":[
		{
			"bufferView":0,
			"componentType":5126,
			"count":140,
			"max":[
				1,
				15.31691837310791,
				1
			],
			"min":[
				-1,
				0,
				-1
			],
			"type":"VEC3"
		},
		{
			"bufferView":1,
			"componentType":5126,
			"count":140,
			"type":"VEC3"
		},
		{
			"bufferView":2,
			"componentType":5126,
			"count":140,
			"type":"VEC2"
		},
		{
			"bufferView":3,
			"componentType":5123,
			"count":474,
			"type":"SCALAR"
		},
		{
			"bufferView":4,
			"componentType":5126,
			"count":3168,
			"max":[
				1.1478755474090576,
				3.2552239894866943,
				1.1478755474090576
			],
			"min":[
				-1.1478755474090576,
				0,
				-1.1478755474090576
			],
			"type":"VEC3"
		},
		{
			"bufferView":5,
			"componentType":5126,
			"count":3168,
			"type":"VEC3"
		},
		{
			"bufferView":6,
			"componentType":5126,
			"count":3168,
			"type":"VEC2"
		},
		{
			"bufferView":7,
			"componentType":5123,
			"count":18612,
			"type":"SCALAR"
		}
	],
	"bufferViews":[
		{
			"buffer":0,
			"byteLength":1680,
			"byteOffset":0,
			"target":34962
		},
		{
			"buffer":0,
			"byteLength":1680,
			"byteOffset":1680,
			"target":34962
		},
		{
			"buffer":0,
			"byteLength":1120,
			"byteOffset":3360,
			"target":34962
		},
		{
			"buffer":0,
			"byteLength":948,
			"byteOffset":4480,
			"target":34963
		},
		{
			"buffer":0,
			"byteLength":38016,
			"byteOffset":5428,
			"target":34962
		},
		{
			"buffer":0,
			"byteLength":38016,
			"byteOffset":43444,
			"target":34962
		},
		{
			"buffer":0,
			"byteLength":25344,
			"byteOffset":81460,
			"target":34962
		},
		{
			"buffer":0,
			"byteLength":37224,
			"byteOffset":106804,
			"target":34963
		}
	],
	"buffers":[
		{
			"byteLength":144028,
			"uri":"pin.bin"
		}
	]
}
